<svg xmlns="http://www.w3.org/2000/svg" version="1.1" xmlns:xlink="http://www.w3.org/1999/xlink" width="1500" height="1500" viewBox="0 0 1500 1500"><rect width="1500" height="1500" x="0" y="0" id="background" stroke="transparent" fill="#a3d9a5"></rect><svg xml:space="preserve" width="1000" height="1000" data-version="2" data-id="lg_jElTaOV5GlOpvYK1re" viewBox="0 0 571 336" x="250" y="250"><rect width="100%" height="100%" fill="transparent"></rect><path fill="#1b263b" d="m178.011 172.409-4.93-.56.09-1.4h39.81l-.09.28 1.2 13.11-1.86.75-1.48-12.28h-25.3v30.04h22.23q.46.09.83-.23.38-.33.38-.88l.37-6.42 1.49-.19v15.91q-.1 0-1.4.09l-.37-6.42h-23.53v29.58l6.42.37q0 .09-.1 1.39l-18.69.1.09-1.31 4.84-.65q.93-.09 1.12-1.21v-58.87q-.19-1.11-1.12-1.2"></path><rect width="41.01" height="65.2" x="-20.5" y="-32.6" fill="none" rx="0" ry="0" transform="translate(194.09 203.55)"></rect><path fill="#1b263b" d="m221.071 170.549 18.69-.1q0 .1.1 1.4l-6.42.56v61.28h25.67l1.86-14.88 1.76.47-1.39 16.27h-21.58l-18.69.1.09-1.31 4.84-.65q.93-.09 1.11-1.21v-58.87q-.18-1.11-1.11-1.2l-4.84-.47z"></path><rect width="41.66" height="65.2" x="-20.83" y="-32.6" fill="none" rx="0" ry="0" transform="translate(242.4 203.55)"></rect><path fill="#1b263b" d="M268.221 203.189q0-15.35 7.86-24.46 7.86-9.11 19.58-9.11 27.43 0 27.43 33.57 0 15.44-7.81 24.32t-19.62 8.88q-27.44 0-27.44-33.2m6.32-.19q0 31.53 21.12 31.53 9.11 0 15.11-8.37t6-23.16q0-31.52-21.11-31.52-9.03 0-15.07 8.46-6.05 8.46-6.05 23.06"></path><rect width="54.87" height="66.77" x="-27.43" y="-33.38" fill="none" rx="0" ry="0" transform="translate(296.16 203.5)"></rect><path fill="#1b263b" d="m328.211 170.549 18.69-.1q0 .1.09 1.4l-7.25.65 15.44 60.63 17.29-62.68h1.4l-.28.75.37-.75 16.37 62.87 16.37-59.61q0-.93-.84-1.03l-8.74-.74-.09-1.39 18.22-.1q0 .1.1 1.4l-6.05.56-18.41 63.14h-5.68l-14.04-55.52-15.34 55.52h-5.77l-16-62.4q-.27-.65-.93-.74l-4.83-.47z"></path><rect width="87.14" height="65.1" x="-43.57" y="-32.55" fill="none" rx="0" ry="0" transform="translate(372.28 203.5)"></rect><path fill="#1b263b" d="M210.701 267.389q-10.51 0-16.65 8.74-6.13 8.74-6.13 25.29 0 20.09 9.2 25.95 2.79 1.77 5.16 2.28 2.38.51 5.26.51 9.21 0 19.25-2.23l.28 1.3q-1.58.56-8.42 1.44-6.83.89-11.11.89-4.28 0-7.44-.61-3.16-.6-6.7-2.56-3.53-1.95-6-5.16-2.46-3.21-4.13-8.79-1.68-5.58-1.68-13.02 0-16.46 7.53-25.66 7.91-9.68 21.58-9.68 4.19 0 9.07.79t6.93 1.54l1.11 13.39-1.76.65-1.21-9.95q-7.54-5.11-14.14-5.11"></path><rect width="46.22" height="65.48" x="-23.11" y="-32.74" fill="none" rx="0" ry="0" transform="translate(205.2 299.32)"></rect><path fill="#1b263b" d="m250.231 331.179-18.7.1.1-1.31 4.83-.65q.65-.09 1.12-1.21l20.09-62.03h6.13l21.39 63.34 6.42.37q0 .09-.09 1.39l-18.6.1q0-.84.09-1.31l4.84-.65q.74-.09.74-1.11l-5.11-15.16h-29.02l-4.93 16.18 10.79.56q0 .09-.09 1.39m22.59-19.99-14.5-43.34-13.3 43.34z"></path><rect width="60.08" height="65.2" x="-30.04" y="-32.6" fill="none" rx="0" ry="0" transform="translate(262.07 299.18)"></rect><path fill="#1b263b" d="M314.581 329.419q6.88 0 12.09-4.05 5.21-4.04 5.21-12.32 0-3.72-1.81-6.37-1.82-2.65-4.79-4.09-2.98-1.45-6.51-2.51-3.54-1.07-7.07-2.28-3.54-1.21-6.51-2.89-2.98-1.67-4.79-4.74-1.81-3.07-1.81-7.35 0-7.44 5.11-12.18 5.12-4.74 13.67-4.74 8.56 0 16.37 1.95l1.02 11.63-1.76.74-.93-7.35q-6.89-5.11-12.93-5.11-6.05 0-10.14 3.67-4.09 3.67-4.09 11.02 0 4.28 3.44 6.79t8.32 3.91q4.89 1.39 9.77 3.16 4.88 1.77 8.32 5.95 3.44 4.19 3.44 10.88 0 9.02-6.41 13.58-6.42 4.56-16.93 4.56t-18.23-5.68l.1-9.85 1.76-.47.19 5.3q2.51 3.54 6.88 6.19 4.37 2.65 9.02 2.65"></path><rect width="41.57" height="65.38" x="-20.79" y="-32.69" fill="none" rx="0" ry="0" transform="translate(317.92 299.09)"></rect><path fill="#1b263b" d="m382.751 266.179 17.67-.1q0 .1.09 1.4l-5.86.65v61.29l6.79.37q0 .09-.09 1.39l-18.6.1q0-.84.09-1.31l4.84-.65q.93-.09 1.12-1.21v-28.27h-31.72v29.58l6.88.37q0 .09-.09 1.39l-18.69.1.09-1.31 4.84-.65q.93-.09 1.11-1.11v-58.96q-.18-1.12-1.11-1.21l-4.84-.47-.09-1.39 18.69-.1q0 .1.09 1.4l-6.88.65v29.85h31.72v-28.64q-.19-1.21-1.12-1.3l-4.84-.47q-.09-.56-.09-1.39"></path><rect width="56.26" height="65.2" x="-28.13" y="-32.6" fill="none" rx="0" ry="0" transform="translate(373.81 299.18)"></rect><path fill="#1b263b" stroke="#1b263b" stroke-width="3.44" d="M7.23 136.988h556.54"></path><path fill="gold" d="M286.396 54.62v-1.88h-2.892c-1.734 0-3.036-1.445-3.036-3.035 0-1.735 1.446-3.036 3.036-3.036h8.385c1.157 0 2.024-.868 2.024-2.024 0-1.157-.867-2.024-2.024-2.024h-4.77a8.083 8.083 0 0 1-8.096-8.096c0-4.193 3.325-7.663 7.373-8.096v-1.88c0-1.735 1.445-3.036 3.036-3.036 1.735 0 3.036 1.446 3.036 3.036v1.735h2.747c1.734 0 3.035 1.446 3.035 3.036s-1.445 3.036-3.035 3.036h-8.096c-1.157 0-2.024.868-2.024 2.024 0 1.157.867 2.024 2.024 2.024h4.626a8.083 8.083 0 0 1 8.096 8.096c0 4.193-3.325 7.662-7.373 8.096v1.88c0 1.734-1.446 3.035-3.036 3.035-1.735.29-3.036-1.156-3.036-2.891m3.036-39.034c1.735 0 3.036-1.446 3.036-3.036V6.478c0-1.735-1.446-3.036-3.036-3.036-1.735 0-3.036 1.446-3.036 3.036v6.072c0 1.735 1.3 3.036 3.036 3.036m.723 47.13c-1.735 0-3.036 1.446-3.036 3.036v6.072c0 1.735 1.445 3.036 3.036 3.036 1.734 0 3.036-1.446 3.036-3.036v-6.072c0-1.735-1.446-3.036-3.036-3.036m-33.107-19.517h6.795c1.735 0 3.036-1.446 3.036-3.036 0-1.735-1.446-3.036-3.036-3.036h-6.795c-1.735 0-3.036 1.446-3.036 3.036 0 1.735 1.301 3.036 3.036 3.036m66.069-.723c1.734 0 3.035-1.446 3.035-3.036 0-1.735-1.445-3.036-3.035-3.036h-6.795c-1.735 0-3.036 1.446-3.036 3.036 0 1.735 1.445 3.036 3.036 3.036zm-55.082-19.517c.579.578 1.446.867 2.169.867s1.59-.289 2.168-.867c1.157-1.157 1.157-3.18 0-4.337l-4.048-4.193c-1.156-1.156-3.18-1.156-4.337 0-1.156 1.157-1.156 3.181 0 4.338zm38.456 33.251c-1.157 1.157-1.157 3.18 0 4.337l4.193 4.193c.578.578 1.445.867 2.168.867s1.59-.289 2.169-.867c1.156-1.157 1.156-3.18 0-4.337l-4.193-4.193c-1.156-1.156-3.036-1.156-4.337 0m-38.022.434-4.192 4.192c-1.157 1.157-1.157 3.18 0 4.337.578.579 1.445.868 2.168.868s1.59-.29 2.169-.868l4.192-4.192c1.157-1.157 1.157-3.18 0-4.337-1.156-1.157-3.036-1.157-4.337 0m41.78-42.648-4.192 4.192c-1.156 1.157-1.156 3.18 0 4.337.579.579 1.446.868 2.169.868s1.59-.29 2.168-.868l4.193-4.192c1.156-1.157 1.156-3.18 0-4.337-1.157-1.157-3.036-1.157-4.337 0m4.77 69.104 14.024-5.927.144.144c-.867.579-3.47 2.458-6.071 4.193-6.506 4.482-6.506 4.482-6.65 4.77-1.157 1.157-1.302 3.181 0 4.338 1.156 1.156 2.746 1.156 4.047.289.434-.29 3.325-2.313 6.217-4.337 6.65-4.626 6.65-4.626 6.795-4.916 2.024-2.168 2.457-5.204.867-7.662-1.59-2.457-4.482-3.614-7.373-2.602-.145 0-.145 0-.29.145l-14.167 6.072c-7.373 2.602-11.566 10.553-11.71 10.842-.145.145-.145.29-.145.434l-6.216 19.083c-.579 1.59.289 3.325 2.024 3.904.289.144.578.144 1.012.144 1.3 0 2.457-.867 2.891-2.168l6.217-18.794c.578-1.012 3.758-6.217 8.24-7.663-.145-.144 0-.144.145-.289m38.022-38.022c-2.892-1.3-6.072-.433-7.807 2.313 0 0 0 .145-.145.145l-10.698 19.661c-.867 1.446-.29 3.326 1.157 4.193 1.445.867 3.325.29 4.192-1.157l10.698-19.517-10.987 32.818c-.578 1.88-2.024 3.614-3.903 4.482l-18.36 8.963c-2.892 1.446-5.06 4.048-5.784 7.084l-1.156 4.626c-.434 1.59.578 3.325 2.168 3.759.29 0 .579.144.723.144 1.301 0 2.602-.867 2.892-2.313l1.156-4.626c.434-1.446 1.301-2.602 2.602-3.18l18.216-8.964c3.325-1.59 5.783-4.481 6.94-7.951l10.987-32.962c1.301-3.036-.145-6.217-2.891-7.518m-73.731 43.66c0-.144-.145-.289-.145-.433-.144-.29-4.337-8.385-11.71-10.843L253.29 71.39c-.144 0-.144 0-.289-.145-2.891-1.012-5.783.145-7.373 2.603-1.59 2.457-1.301 5.638.867 7.662.29.289.29.289 6.795 4.915 2.892 2.024 5.783 4.048 6.217 4.337 1.156.868 2.891.868 4.048-.289 1.156-1.156 1.156-3.18 0-4.337-.145-.144-.145-.144-6.65-4.77-2.603-1.736-5.06-3.615-6.072-4.193l.144-.145L265 82.956c.145 0 .145 0 .29.144 4.481 1.446 7.662 6.65 8.24 7.662l6.217 18.794c.433 1.302 1.59 2.169 2.89 2.169.29 0 .58 0 1.013-.145 1.59-.578 2.458-2.313 2.024-3.903zm-10.698 15.325c-.868-3.036-2.892-5.638-5.783-7.084l-18.216-8.963c-1.88-.868-3.18-2.458-3.903-4.482L229.58 50.716l10.698 19.373c.867 1.446 2.747 2.024 4.192 1.156 1.446-.867 2.024-2.746 1.157-4.192L234.929 47.39s0-.144-.145-.144c-1.59-2.747-4.915-3.614-7.807-2.313-2.89 1.3-4.192 4.481-3.18 7.517l10.987 32.962c1.157 3.47 3.76 6.361 6.94 7.952l18.215 8.963c1.302.578 2.169 1.735 2.603 3.18l1.156 4.627c.434 1.445 1.59 2.313 2.892 2.313.289 0 .578 0 .723-.145 1.59-.433 2.602-2.168 2.168-3.759z"></path></svg></svg>