<svg xmlns="http://www.w3.org/2000/svg" version="1.1" xmlns:xlink="http://www.w3.org/1999/xlink" width="1500" height="133" viewBox="0 0 1500 133"><svg xml:space="preserve" width="1500" height="133" data-version="2" data-id="lg_pOwuO6tLhMh6gVudDw" viewBox="0 0 687 133" x="0" y="0"><rect width="100%" height="100%" fill="transparent"></rect><path fill="#1b263b" d="m208.97 46.95.09-1.35h38.52l-.09.27 1.17 12.69-1.8.72-1.44-11.88h-24.48v29.07h21.51q.45.09.81-.22.36-.32.36-.86l.36-6.21 1.44-.18v15.39q-.09 0-1.35.09l-.36-6.21h-22.77v28.62l6.21.36q0 .09-.09 1.35l-18.09.09.09-1.26 4.68-.63q.9-.09 1.08-1.17V48.66q-.18-1.08-1.08-1.17Z"></path><rect width="39.69" height="63.09" x="-19.84" y="-31.55" fill="none" rx="0" ry="0" transform="translate(229.32 77.64)"></rect><path fill="#1b263b" d="M273.05 45.6q0 .09.09 1.35l-6.21.54v59.31h24.84l1.8-14.4 1.71.45-1.35 15.75h-20.88l-18.09.09.09-1.26 4.68-.63q.9-.09 1.08-1.17V48.66q-.18-1.08-1.08-1.17l-4.68-.45-.09-1.35Z"></path><rect width="40.32" height="63.09" x="-20.16" y="-31.55" fill="none" rx="0" ry="0" transform="translate(275.62 77.64)"></rect><path fill="#1b263b" d="M297.98 77.28q0-14.85 7.6-23.67 7.61-8.82 18.95-8.82 26.55 0 26.55 32.49 0 14.94-7.56 23.54-7.56 8.59-18.99 8.59-26.55 0-26.55-32.13m6.12-.18q0 30.51 20.43 30.51 8.82 0 14.62-8.1 5.81-8.1 5.81-22.41 0-30.51-20.43-30.51-8.73 0-14.58 8.19T304.1 77.1"></path><rect width="53.1" height="64.62" x="-26.55" y="-32.31" fill="none" rx="0" ry="0" transform="translate(325.03 77.6)"></rect><path fill="#1b263b" d="M371.42 45.6q0 .09.09 1.35l-7.02.63 14.94 58.68 16.74-60.66h1.35l-.27.72.36-.72 15.84 60.84 15.84-57.69q0-.9-.81-.99l-8.46-.72-.09-1.35 17.64-.09q0 .09.09 1.35l-5.85.54-17.82 61.11h-5.49l-13.59-53.73-14.85 53.73h-5.58L359 48.21q-.27-.63-.9-.72l-4.68-.45-.09-1.35Z"></path><rect width="84.33" height="63" x="-42.16" y="-31.5" fill="none" rx="0" ry="0" transform="translate(396 77.6)"></rect><path fill="#1b263b" d="M497.87 46.86q-10.17 0-16.11 8.46-5.94 8.46-5.94 24.48 0 19.44 8.91 25.11 2.7 1.71 4.99 2.21 2.3.49 5.09.49 8.91 0 18.63-2.16l.27 1.26q-1.53.54-8.15 1.4-6.61.85-10.75.85t-7.2-.58q-3.06-.59-6.48-2.48-3.42-1.89-5.81-4.99-2.38-3.11-4-8.51t-1.62-12.6q0-15.93 7.29-24.84 7.65-9.36 20.88-9.36 4.05 0 8.77.77 4.73.76 6.71 1.48l1.08 12.96-1.71.63-1.17-9.63q-7.29-4.95-13.68-4.95"></path><rect width="44.73" height="63.36" x="-22.36" y="-31.68" fill="none" rx="0" ry="0" transform="translate(492.57 77.78)"></rect><path fill="#1b263b" d="m517.13 108.69.09-1.26 4.68-.63q.63-.09 1.08-1.17l19.44-60.03h5.94l20.7 61.29 6.21.36q0 .09-.09 1.35l-18 .09q0-.81.09-1.26l4.68-.63q.72-.09.72-1.08l-4.95-14.67h-28.08l-4.77 15.66 10.44.54q0 .09-.09 1.35Zm25.92-61.38-12.87 41.94h26.91Z"></path><rect width="58.14" height="63.09" x="-29.07" y="-31.55" fill="none" rx="0" ry="0" transform="translate(546.7 77.64)"></rect><path fill="#1b263b" d="M596.15 106.89q6.66 0 11.7-3.91 5.04-3.92 5.04-11.93 0-3.6-1.76-6.16-1.75-2.57-4.63-3.96-2.88-1.4-6.3-2.43-3.42-1.04-6.84-2.21t-6.3-2.79q-2.88-1.62-4.64-4.59-1.75-2.97-1.75-7.11 0-7.2 4.95-11.79 4.95-4.59 13.23-4.59 8.28 0 15.84 1.89l.99 11.25-1.71.72-.9-7.11q-6.66-4.95-12.51-4.95t-9.81 3.56q-3.96 3.55-3.96 10.66 0 4.14 3.33 6.57 3.33 2.43 8.05 3.78 4.73 1.35 9.45 3.06 4.73 1.71 8.06 5.76t3.33 10.53q0 8.73-6.21 13.14t-16.38 4.41q-10.17 0-17.64-5.49l.09-9.54 1.71-.45.18 5.13q2.43 3.42 6.66 5.99 4.23 2.56 8.73 2.56"></path><rect width="40.23" height="63.27" x="-20.11" y="-31.64" fill="none" rx="0" ry="0" transform="translate(599.4 77.56)"></rect><path fill="#1b263b" d="M678.32 45.6q0 .09.09 1.35l-5.67.63v59.31l6.57.36q0 .09-.09 1.35l-18 .09q0-.81.09-1.26l4.68-.63q.9-.09 1.08-1.17V78.27h-30.69v28.62l6.66.36q0 .09-.09 1.35l-18.09.09.09-1.26 4.68-.63q.9-.09 1.08-1.08V48.66q-.18-1.08-1.08-1.17l-4.68-.45-.09-1.35 18.09-.09q0 .09.09 1.35l-6.66.63v28.89h30.69V48.75q-.18-1.17-1.08-1.26l-4.68-.45q-.09-.54-.09-1.35Z"></path><rect width="54.45" height="63.09" x="-27.23" y="-31.55" fill="none" rx="0" ry="0" transform="translate(652.59 77.64)"></rect><path fill="gold" d="M81.86 62.443v-2.245h-3.453c-2.072 0-3.626-1.727-3.626-3.626 0-2.072 1.726-3.626 3.626-3.626h10.015c1.381 0 2.417-1.036 2.417-2.418 0-1.381-1.036-2.417-2.417-2.417h-5.698a9.654 9.654 0 0 1-9.67-9.67c0-5.007 3.971-9.151 8.806-9.67v-2.244c0-2.072 1.727-3.626 3.626-3.626 2.072 0 3.626 1.727 3.626 3.626V28.6h3.281c2.072 0 3.626 1.727 3.626 3.626s-1.727 3.626-3.626 3.626h-9.67c-1.38 0-2.417 1.036-2.417 2.418 0 1.381 1.036 2.417 2.418 2.417h5.525a9.654 9.654 0 0 1 9.67 9.67c0 5.007-3.972 9.151-8.807 9.67v2.244c0 2.072-1.726 3.626-3.626 3.626-2.072.345-3.626-1.381-3.626-3.453m3.626-46.621c2.072 0 3.626-1.727 3.626-3.626V4.943c0-2.072-1.726-3.626-3.626-3.626-2.072 0-3.626 1.727-3.626 3.626v7.253c0 2.072 1.554 3.626 3.626 3.626m.864 56.29c-2.072 0-3.626 1.727-3.626 3.626v7.252c0 2.072 1.726 3.626 3.626 3.626 2.072 0 3.626-1.726 3.626-3.626v-7.252c0-2.072-1.727-3.626-3.626-3.626m-39.542-23.31h8.116c2.072 0 3.626-1.727 3.626-3.626 0-2.072-1.727-3.626-3.626-3.626h-8.116c-2.072 0-3.626 1.726-3.626 3.626 0 2.072 1.554 3.626 3.626 3.626m78.91-.864c2.072 0 3.626-1.726 3.626-3.626 0-2.072-1.726-3.626-3.626-3.626h-8.115c-2.072 0-3.626 1.727-3.626 3.626 0 2.072 1.727 3.626 3.626 3.626zm-65.787-23.31c.69.69 1.727 1.036 2.59 1.036s1.9-.345 2.59-1.036c1.382-1.382 1.382-3.799 0-5.18l-4.835-5.008c-1.38-1.381-3.798-1.381-5.18 0-1.381 1.382-1.381 3.8 0 5.18zm45.93 39.714c-1.381 1.381-1.381 3.799 0 5.18l5.008 5.007c.69.691 1.727 1.037 2.59 1.037s1.9-.346 2.59-1.037c1.381-1.38 1.381-3.798 0-5.18l-5.008-5.007c-1.38-1.381-3.626-1.381-5.18 0m-45.412.518-5.007 5.007c-1.382 1.382-1.382 3.8 0 5.18.69.691 1.726 1.037 2.59 1.037s1.9-.346 2.59-1.037l5.007-5.007c1.382-1.381 1.382-3.799 0-5.18-1.381-1.381-3.626-1.381-5.18 0m49.902-50.938-5.008 5.008c-1.381 1.381-1.381 3.798 0 5.18.691.69 1.727 1.036 2.59 1.036s1.9-.345 2.59-1.036l5.008-5.008c1.381-1.38 1.381-3.798 0-5.18-1.381-1.381-3.626-1.381-5.18 0m5.698 82.537 16.749-7.08.173.173c-1.036.69-4.145 2.935-7.253 5.007-7.77 5.353-7.77 5.353-7.942 5.698-1.382 1.382-1.554 3.8 0 5.18 1.381 1.382 3.28 1.382 4.834.346.518-.346 3.972-2.763 7.425-5.18 7.943-5.526 7.943-5.526 8.116-5.871 2.417-2.59 2.935-6.216 1.036-9.152-1.9-2.935-5.353-4.316-8.806-3.108-.173 0-.173 0-.346.173l-16.921 7.252c-8.807 3.108-13.814 12.605-13.987 12.95-.172.173-.172.346-.172.518l-7.425 22.793c-.69 1.9.345 3.971 2.417 4.662.345.173.69.173 1.209.173 1.554 0 2.935-1.036 3.453-2.59l7.425-22.448c.69-1.208 4.49-7.424 9.842-9.151-.172-.173 0-.173.173-.345m45.412-45.413c-3.453-1.554-7.252-.518-9.324 2.763 0 0 0 .173-.173.173l-12.777 23.483c-1.036 1.727-.346 3.971 1.381 5.007 1.727 1.036 3.971.346 5.007-1.381l12.778-23.31-13.123 39.196c-.69 2.244-2.417 4.316-4.662 5.352l-21.929 10.706c-3.453 1.727-6.043 4.835-6.907 8.46l-1.381 5.526c-.518 1.9.69 3.972 2.59 4.49.345 0 .69.172.863.172 1.554 0 3.108-1.036 3.454-2.762l1.381-5.526c.518-1.727 1.554-3.108 3.108-3.799l21.756-10.705c3.972-1.9 6.907-5.353 8.289-9.497l13.123-39.369c1.554-3.626-.173-7.425-3.454-8.979M73.4 103.193c0-.173-.172-.346-.172-.518-.173-.346-5.18-10.015-13.987-12.95L42.32 82.471c-.173 0-.173 0-.346-.172-3.453-1.209-6.906.172-8.806 3.108-1.9 2.935-1.554 6.734 1.036 9.151.346.346.346.346 8.116 5.871 3.453 2.417 6.907 4.835 7.425 5.18 1.381 1.036 3.453 1.036 4.834-.345 1.382-1.382 1.382-3.799 0-5.18-.172-.173-.172-.173-7.942-5.698-3.108-2.072-6.044-4.317-7.253-5.008l.173-.173 16.75 7.08c.172 0 .172 0 .344.173 5.353 1.726 9.152 7.942 9.843 9.151l7.424 22.447c.518 1.554 1.9 2.59 3.454 2.59.345 0 .69 0 1.209-.172 1.899-.691 2.935-2.763 2.417-4.663zm-12.777 18.303c-1.036-3.626-3.454-6.734-6.907-8.461L31.96 102.329c-2.245-1.036-3.8-2.935-4.662-5.352L14 57.78l12.778 23.138c1.036 1.727 3.28 2.418 5.007 1.382 1.727-1.036 2.417-3.281 1.381-5.008L20.39 53.81s0-.173-.173-.173c-1.9-3.28-5.87-4.316-9.324-2.762-3.454 1.554-5.008 5.352-3.799 8.979L20.217 99.22c1.381 4.144 4.49 7.598 8.288 9.497l21.757 10.706c1.554.69 2.59 2.072 3.108 3.798l1.381 5.526c.518 1.727 1.9 2.763 3.453 2.763.346 0 .691 0 .864-.173 1.9-.518 3.108-2.59 2.59-4.49z"></path></svg></svg>